<?xml version="1.0" standalone="no"?><svg xmlns="http://www.w3.org/2000/svg" viewBox="0 0 1440 320"><path fill="#4e54c8" fill-opacity="1" d="M0,64L24,64C48,64,96,64,144,96C192,128,240,192,288,218.7C336,245,384,235,432,208C480,181,528,139,576,138.7C624,139,672,181,720,192C768,203,816,181,864,160C912,139,960,117,1008,133.3C1056,149,1104,203,1152,208C1200,213,1248,171,1296,144C1344,117,1392,107,1416,101.3L1440,96L1440,0L1416,0C1392,0,1344,0,1296,0C1248,0,1200,0,1152,0C1104,0,1056,0,1008,0C960,0,912,0,864,0C816,0,768,0,720,0C672,0,624,0,576,0C528,0,480,0,432,0C384,0,336,0,288,0C240,0,192,0,144,0C96,0,48,0,24,0L0,0Z"></path></svg>